<?xml version="1.0" encoding="UTF-8" standalone="no"?>
<svg
   xmlns:dc="http://purl.org/dc/elements/1.1/"
   xmlns:cc="http://creativecommons.org/ns#"
   xmlns:rdf="http://www.w3.org/1999/02/22-rdf-syntax-ns#"
   xmlns:svg="http://www.w3.org/2000/svg"
   xmlns="http://www.w3.org/2000/svg"
   xmlns:sodipodi="http://sodipodi.sourceforge.net/DTD/sodipodi-0.dtd"
   xmlns:inkscape="http://www.inkscape.org/namespaces/inkscape"
   version="1.0"
   width="128"
   height="128"
   viewBox="0 0 102.4 102.4"
   preserveAspectRatio="xMidYMid meet"
   id="svg3115"
   inkscape:version="0.48.5 r10040"
   sodipodi:docname="QR.svg">
  <defs
     id="defs3243" />
  <sodipodi:namedview
     pagecolor="#ffffff"
     bordercolor="#666666"
     borderopacity="1"
     objecttolerance="10"
     gridtolerance="10"
     guidetolerance="10"
     inkscape:pageopacity="0"
     inkscape:pageshadow="2"
     inkscape:window-width="1366"
     inkscape:window-height="709"
     id="namedview3241"
     showgrid="false"
     inkscape:zoom="0.4078125"
     inkscape:cx="232.95019"
     inkscape:cy="640"
     inkscape:window-x="-8"
     inkscape:window-y="-8"
     inkscape:window-maximized="1"
     inkscape:current-layer="svg3115" />
  <metadata
     id="metadata3117">
Created by potrace 1.11, written by Peter Selinger 2001-2013
<rdf:RDF>
  <cc:Work
     rdf:about="">
    <dc:format>image/svg+xml</dc:format>
    <dc:type
       rdf:resource="http://purl.org/dc/dcmitype/StillImage" />
    <dc:title></dc:title>
  </cc:Work>
</rdf:RDF>
</metadata>
  <g
     transform="matrix(0.01,0,0,-0.01,0,102.43)"
     id="g3119"
     style="fill:#000000;stroke:none">
    <path
       d="m 4747,9878 c -312,-314 -356,-362 -345,-377 33,-43 707,-711 718,-711 11,0 685,668 718,711 11,15 -34,63 -349,378 -199,199 -366,360 -373,360 -6,-1 -172,-163 -369,-361 z m 637,-104 c 225,-224 255,-258 244,-272 -32,-42 -498,-502 -508,-502 -10,0 -476,460 -508,502 -11,14 18,47 240,271 139,140 258,255 264,256 7,0 127,-114 268,-255 z"
       id="path3121"
       inkscape:connector-curvature="0" />
    <path
       d="m 4957,9668 c -128,-131 -146,-152 -135,-167 29,-37 289,-291 298,-291 9,0 269,254 298,291 11,15 -7,37 -138,168 -83,83 -156,151 -163,150 -7,-1 -79,-69 -160,-151 z"
       id="path3123"
       inkscape:connector-curvature="0" />
    <path
       d="m 4230,9359 c -19,-22 -39,-44 -44,-49 -6,-6 9,-27 37,-56 26,-26 47,-51 47,-56 0,-5 -43,-53 -95,-105 -52,-52 -95,-99 -95,-104 0,-5 18,-29 41,-54 47,-51 57,-50 111,7 20,21 40,38 45,38 5,0 51,-43 103,-95 52,-52 100,-95 106,-95 19,0 94,74 94,93 0,10 -16,31 -35,48 -52,46 -53,63 -6,107 23,21 41,45 41,53 0,16 -290,309 -305,308 -6,0 -26,-18 -45,-40 z"
       id="path3125"
       inkscape:connector-curvature="0" />
    <path
       d="m 5803,9249 c -24,-22 -43,-45 -43,-51 0,-15 187,-198 204,-198 7,0 32,21 56,46 48,53 57,34 -72,165 -43,44 -84,79 -90,79 -7,0 -32,-19 -55,-41 z"
       id="path3127"
       inkscape:connector-curvature="0" />
    <path
       d="m 5593,9039 c -24,-22 -43,-45 -43,-50 0,-6 65,-76 145,-155 80,-79 145,-152 145,-162 0,-19 -488,-512 -508,-512 -19,0 -92,71 -92,90 0,10 18,36 41,59 22,22 39,45 37,50 -1,5 -23,30 -47,56 l -43,47 -47,-46 c -26,-25 -53,-46 -62,-46 -8,0 -59,45 -113,99 l -99,99 -41,-44 c -23,-24 -50,-44 -61,-44 -12,0 -57,36 -110,90 -49,50 -95,90 -102,90 -7,0 -30,-18 -52,-40 -21,-22 -45,-40 -53,-40 -8,0 -32,18 -53,40 -21,22 -44,40 -50,40 -7,0 -31,-18 -54,-40 -23,-22 -48,-40 -54,-40 -7,0 -32,20 -56,45 -49,51 -43,52 -113,-17 -35,-36 -50,-35 -85,5 -56,63 -56,63 -107,12 -25,-25 -46,-51 -46,-58 1,-6 43,-54 95,-106 52,-52 95,-99 95,-103 0,-10 -89,-98 -99,-98 -3,0 -26,20 -49,45 -23,25 -46,45 -52,45 -5,0 -30,-20 -56,-45 -25,-25 -49,-45 -52,-45 -4,0 -26,20 -50,45 -24,25 -47,45 -53,45 -6,0 -25,-15 -42,-33 -63,-64 -61,-64 -113,-13 -25,25 -50,46 -55,46 -5,0 -71,-62 -146,-138 -76,-76 -146,-144 -155,-151 -16,-12 -23,-8 -62,33 -25,25 -49,46 -54,46 -13,0 -202,-190 -202,-202 0,-5 18,-26 40,-45 22,-20 40,-45 40,-55 0,-10 -18,-38 -40,-60 -22,-23 -40,-46 -40,-50 0,-4 18,-26 40,-48 22,-22 40,-46 40,-53 0,-13 -80,-97 -93,-97 -14,0 -87,83 -87,99 0,10 14,30 31,47 49,46 51,57 22,92 -14,17 -36,38 -49,46 -22,15 -27,12 -223,-185 -111,-111 -201,-206 -201,-213 0,-7 18,-30 40,-51 22,-21 40,-46 40,-55 0,-8 -21,-35 -46,-59 l -46,-43 -52,50 -51,51 -47,-44 c -27,-25 -48,-50 -48,-57 0,-8 39,-52 86,-98 47,-47 90,-93 95,-102 8,-15 -9,-36 -91,-120 l -101,-102 -104,104 c -94,94 -105,102 -121,89 -45,-36 -184,-183 -184,-193 0,-7 18,-30 40,-51 22,-21 40,-45 40,-52 0,-8 -18,-33 -40,-55 -22,-23 -40,-47 -40,-52 0,-12 81,-96 93,-96 12,0 97,86 97,99 0,5 -20,31 -45,56 -51,53 -50,57 14,119 l 40,39 45,-47 c 26,-26 46,-52 46,-59 0,-7 -16,-29 -36,-48 -60,-57 -60,-63 -9,-110 25,-23 45,-48 45,-56 0,-8 -43,-57 -95,-109 -52,-53 -95,-99 -95,-103 0,-4 16,-23 36,-42 59,-56 59,-62 10,-113 -24,-25 -48,-46 -52,-46 -5,0 -52,43 -104,95 -52,52 -100,95 -107,95 -12,0 -203,-187 -203,-199 0,-4 22,-29 49,-56 l 50,-48 46,46 c 25,26 51,47 58,47 17,0 407,-392 407,-409 0,-18 -74,-91 -92,-91 -8,0 -32,18 -53,40 -21,22 -44,40 -50,40 -6,0 -30,-18 -54,-40 -23,-22 -48,-40 -55,-40 -6,0 -30,18 -51,40 -21,22 -44,40 -50,40 -11,0 -122,-105 -185,-174 l -24,-27 99,-99 c 55,-55 103,-100 107,-100 5,0 27,18 50,40 24,22 50,40 58,40 19,0 90,-71 90,-90 0,-7 -65,-79 -145,-160 -80,-80 -145,-150 -145,-156 0,-5 18,-28 40,-49 22,-21 40,-45 40,-53 0,-19 -73,-92 -92,-92 -8,0 -32,18 -53,40 -21,22 -44,40 -50,40 -14,0 -515,-502 -515,-516 0,-6 20,-30 45,-53 36,-33 49,-40 63,-32 9,5 55,48 102,95 46,47 89,86 95,86 6,0 96,-86 200,-191 105,-104 197,-194 207,-200 12,-7 25,-1 53,24 62,54 63,62 10,119 l -47,50 151,152 c 83,84 151,156 151,161 0,5 -21,31 -47,57 l -46,47 46,50 c 26,28 47,53 47,57 0,4 -21,29 -46,56 l -46,49 46,49 c 25,27 46,53 46,57 0,4 -21,29 -47,55 l -48,48 53,52 52,52 205,-204 c 113,-112 205,-208 205,-213 0,-4 -21,-30 -47,-58 l -46,-50 46,-47 c 26,-26 47,-51 47,-56 0,-4 -43,-51 -95,-103 -52,-53 -95,-101 -95,-107 0,-7 18,-30 40,-51 22,-21 40,-45 40,-52 0,-7 -18,-31 -40,-53 -22,-22 -40,-46 -40,-53 0,-13 80,-97 92,-97 4,0 28,20 55,45 26,25 50,45 53,45 3,0 26,-20 50,-45 24,-25 48,-45 52,-45 11,0 98,87 98,98 0,4 -16,24 -36,43 -58,55 -58,60 -8,113 24,26 44,50 44,54 0,4 -46,53 -102,109 l -102,102 49,46 c 27,25 54,45 60,45 15,0 195,-183 195,-198 0,-7 -21,-33 -47,-58 l -46,-45 151,-152 c 84,-84 152,-158 152,-165 0,-7 -21,-33 -47,-58 l -46,-45 46,-47 c 26,-26 47,-53 47,-59 0,-7 -18,-30 -40,-52 -22,-22 -40,-46 -40,-53 0,-8 20,-34 45,-58 48,-48 47,-48 106,11 42,43 41,52 -11,104 l -48,48 99,98 c 54,55 105,99 111,99 22,0 97,-81 91,-98 -4,-8 -49,-57 -101,-109 l -95,-94 46,-47 c 26,-26 47,-53 47,-59 0,-10 -141,-158 -184,-192 -16,-13 -27,-5 -121,89 l -104,103 -45,-46 c -25,-25 -46,-52 -46,-59 0,-7 42,-56 94,-107 65,-65 92,-99 88,-110 -3,-8 -23,-32 -44,-52 -21,-20 -38,-40 -38,-45 0,-6 22,-31 48,-58 l 49,-47 52,53 51,52 150,-149 c 83,-82 150,-157 150,-165 0,-9 -18,-34 -40,-55 -22,-21 -40,-46 -40,-55 0,-9 18,-34 40,-55 22,-21 40,-44 40,-50 0,-6 -18,-29 -40,-50 -22,-21 -40,-44 -40,-50 0,-6 22,-32 48,-58 l 48,-47 47,48 c 26,26 47,52 47,58 0,5 -18,28 -40,49 -22,21 -40,46 -40,55 0,9 20,36 45,60 l 45,44 48,-47 c 26,-26 52,-47 58,-47 16,0 194,184 194,201 0,8 -18,33 -40,54 -22,21 -40,44 -40,50 0,6 45,55 99,109 l 99,99 50,-47 c 27,-25 52,-46 56,-46 12,0 96,82 96,94 0,6 -43,54 -95,106 -52,52 -95,99 -95,104 0,14 82,96 95,96 6,0 77,-67 159,-149 127,-128 147,-151 138,-167 -6,-11 -51,-59 -102,-108 l -91,-89 -54,53 c -30,30 -56,52 -57,49 -2,-3 -48,-51 -103,-107 l -99,-102 48,-49 c 54,-54 53,-62 -3,-115 -17,-17 -31,-37 -31,-46 0,-9 20,-35 44,-59 l 44,-43 46,42 c 25,23 46,50 46,59 0,9 -18,35 -40,56 -22,21 -40,44 -40,49 0,14 81,96 95,96 6,0 30,-20 54,-44 49,-50 48,-60 -14,-114 -19,-17 -35,-35 -35,-40 0,-4 22,-29 49,-56 l 49,-48 46,42 c 25,23 46,50 46,58 0,9 -20,37 -45,62 l -45,46 157,157 157,157 -53,54 -53,53 49,46 c 26,26 53,47 58,47 6,0 53,-43 105,-95 52,-52 99,-95 105,-95 6,0 53,43 105,95 52,52 99,95 105,95 6,0 55,-45 109,-99 l 98,-99 -42,-46 c -23,-25 -50,-46 -59,-46 -9,0 -35,18 -56,40 -21,22 -44,40 -50,40 -14,0 -95,-82 -95,-96 0,-5 20,-29 44,-53 50,-49 60,-48 114,14 17,19 35,35 39,35 5,0 145,-137 313,-305 168,-168 312,-305 320,-305 8,0 80,65 160,145 80,80 149,145 155,145 14,0 95,-82 95,-96 0,-5 -18,-28 -40,-49 -22,-21 -40,-46 -40,-55 0,-9 18,-34 40,-55 22,-21 40,-44 40,-49 0,-14 -81,-96 -95,-96 -6,0 -29,18 -50,40 -21,22 -46,40 -55,40 -17,0 -200,-179 -200,-196 0,-5 18,-28 40,-49 22,-21 40,-46 40,-55 0,-20 -71,-90 -91,-90 -8,0 -33,18 -54,40 -21,22 -44,40 -50,40 -6,0 -53,-43 -105,-95 -52,-52 -99,-95 -105,-95 -6,0 -29,18 -50,40 -21,22 -46,40 -55,40 -9,0 -36,-20 -60,-45 l -44,-45 47,-48 c 26,-26 47,-52 47,-58 0,-5 -18,-28 -40,-49 -22,-21 -40,-46 -40,-55 0,-20 71,-90 91,-90 8,0 55,40 104,90 49,49 97,90 105,90 8,0 56,-40 105,-90 49,-49 97,-90 105,-90 9,0 29,14 46,31 53,55 61,56 110,8 24,-24 44,-48 44,-54 0,-6 -18,-29 -40,-50 -22,-21 -40,-46 -40,-55 0,-8 115,-130 255,-270 l 255,-254 205,204 c 113,113 205,210 205,215 0,12 -82,95 -93,95 -4,0 -30,-21 -58,-47 l -50,-47 -97,97 c -54,53 -104,97 -113,97 -8,0 -33,-18 -54,-40 -21,-22 -44,-40 -50,-40 -16,0 -195,183 -195,200 0,9 41,56 90,105 50,49 90,97 90,105 0,9 -18,34 -40,55 -22,21 -40,44 -40,49 0,14 292,306 305,306 6,0 53,-43 105,-95 52,-52 99,-95 105,-95 13,0 95,82 95,95 0,5 -137,147 -305,315 -168,168 -305,310 -305,316 0,5 22,31 49,58 l 49,48 42,-46 c 23,-25 50,-46 59,-46 9,0 35,18 56,40 21,22 43,40 48,40 6,0 32,-21 60,-46 l 49,-47 105,105 105,105 -47,44 c -26,24 -52,46 -57,48 -6,2 -32,-18 -58,-44 l -48,-47 -50,46 c -27,25 -53,46 -58,46 -5,0 -52,-43 -104,-95 -52,-52 -98,-95 -103,-95 -4,0 -27,18 -51,40 -24,22 -50,40 -58,40 -7,0 -32,-18 -53,-40 -21,-22 -44,-40 -50,-40 -6,0 -53,43 -105,95 -52,52 -99,95 -105,95 -6,0 -29,-18 -50,-40 -21,-22 -46,-40 -55,-40 -8,0 -80,65 -160,145 -80,80 -150,145 -155,145 -6,0 -29,-18 -50,-40 -21,-22 -46,-40 -55,-40 -8,0 -150,135 -315,300 -165,165 -307,300 -315,300 -9,0 -34,-18 -55,-40 -21,-22 -44,-40 -50,-40 -6,0 -55,45 -110,100 l -100,100 53,52 52,53 -366,366 -366,366 46,48 c 25,26 46,53 46,59 0,6 -113,124 -250,261 -138,137 -250,255 -250,261 0,14 81,94 95,94 6,0 29,-18 50,-40 21,-22 46,-40 54,-40 9,0 57,43 108,96 103,105 102,102 39,163 -20,19 -36,38 -36,41 0,4 20,28 45,53 25,26 45,50 45,53 0,2 -21,27 -47,55 l -46,50 144,148 c 85,87 152,149 164,150 12,0 37,-16 60,-39 21,-22 43,-40 47,-40 5,0 52,42 104,94 108,106 110,111 43,171 l -41,36 44,49 c 24,26 49,48 57,49 7,1 56,-42 108,-94 52,-52 99,-95 103,-95 11,0 100,81 100,91 0,4 -45,54 -100,110 l -101,102 93,97 c 51,54 102,98 112,99 11,0 36,-17 57,-39 21,-22 44,-40 52,-40 7,0 33,20 57,45 48,49 49,47 -18,113 -19,18 -32,36 -30,41 8,23 80,91 95,91 10,0 34,-18 53,-40 19,-22 41,-40 49,-40 8,0 57,43 109,95 52,52 98,95 102,95 5,0 27,-18 49,-40 22,-22 48,-40 57,-40 9,0 34,18 56,40 22,22 44,40 48,40 4,0 26,-18 48,-40 22,-22 47,-40 57,-40 10,0 35,18 57,40 22,22 44,40 48,40 5,0 51,-43 103,-95 52,-52 100,-95 107,-95 7,0 30,18 51,40 22,22 45,40 53,40 16,0 306,-287 306,-302 0,-5 -15,-24 -33,-41 -68,-67 -71,-57 41,-167 56,-55 104,-100 108,-100 3,0 25,20 50,45 24,25 47,45 52,45 11,0 832,-819 832,-829 0,-4 -16,-23 -36,-42 -65,-62 -70,-53 96,-220 82,-84 150,-155 150,-159 0,-3 -20,-26 -45,-50 -25,-24 -45,-48 -45,-52 0,-5 68,-76 150,-159 83,-83 150,-154 150,-158 0,-4 -20,-27 -45,-51 -25,-24 -45,-48 -45,-52 0,-5 43,-51 95,-103 52,-53 95,-101 95,-108 0,-7 -43,-55 -95,-107 -52,-52 -95,-98 -95,-103 0,-4 20,-27 45,-51 25,-25 45,-48 45,-53 0,-5 -20,-29 -45,-53 -25,-24 -45,-48 -45,-52 0,-5 20,-28 45,-52 25,-25 45,-48 45,-53 0,-5 -20,-28 -44,-52 -50,-50 -50,-57 6,-112 21,-20 38,-40 38,-45 0,-13 -83,-94 -96,-94 -6,0 -30,18 -52,40 -22,22 -46,40 -53,40 -8,0 -128,-114 -268,-254 l -254,-254 47,-49 c 25,-28 46,-54 46,-59 0,-5 -43,-52 -95,-104 -52,-52 -95,-98 -95,-103 0,-12 81,-97 93,-97 5,0 32,21 59,46 l 50,46 47,-46 c 26,-25 51,-46 56,-46 5,0 31,21 57,47 l 48,47 105,-104 105,-105 255,255 c 140,140 255,261 255,268 0,8 -18,31 -40,53 -22,22 -40,45 -40,52 0,7 43,55 95,107 52,52 95,98 95,103 0,5 -43,51 -95,103 -52,52 -95,100 -95,107 0,7 18,31 40,52 22,21 40,45 40,52 0,7 -43,56 -95,108 -52,52 -95,98 -95,102 0,10 193,203 202,203 4,0 122,-115 262,-255 141,-140 259,-255 264,-255 4,0 28,20 52,45 24,25 48,45 52,45 5,0 28,-20 52,-45 25,-25 49,-45 53,-45 13,0 93,84 93,97 0,6 -43,54 -95,106 -52,52 -95,99 -95,104 0,4 90,98 200,208 110,110 200,204 200,210 0,6 -45,55 -100,110 l -100,100 -98,-98 c -53,-53 -103,-97 -110,-97 -7,0 -32,18 -56,40 -24,22 -47,40 -52,40 -5,0 -52,-43 -104,-95 -52,-52 -98,-95 -102,-95 -4,0 -28,20 -55,45 -26,25 -50,45 -53,45 -3,0 -26,-20 -50,-45 -24,-25 -48,-45 -53,-45 -14,0 -197,188 -197,202 0,8 18,32 40,53 22,21 40,44 40,51 0,6 -43,55 -95,107 -52,53 -95,100 -95,104 0,12 83,93 96,93 5,0 53,-43 106,-95 53,-52 101,-95 105,-95 5,0 31,22 57,49 l 49,50 -46,44 c -26,24 -47,50 -47,58 0,15 79,99 93,99 4,0 22,-16 39,-35 60,-69 59,-69 173,45 l 103,102 37,-40 c 64,-72 54,-77 280,148 l 203,203 29,-24 c 16,-13 39,-36 52,-52 l 24,-29 -153,-153 c -131,-132 -151,-155 -142,-171 6,-11 49,-57 96,-104 47,-46 86,-89 86,-95 0,-6 -18,-29 -40,-50 -22,-21 -40,-46 -40,-54 0,-18 267,-289 293,-297 14,-4 31,6 61,35 23,23 46,41 51,41 14,0 305,-292 305,-306 0,-6 -20,-30 -45,-53 -25,-23 -45,-44 -45,-46 0,-15 85,-95 100,-95 10,0 37,21 60,46 l 42,46 -51,52 -52,52 52,53 53,52 46,-46 c 25,-25 52,-45 61,-45 17,0 199,180 199,197 0,7 -21,33 -47,57 l -47,46 -102,-100 c -55,-55 -105,-100 -110,-100 -16,0 -194,184 -194,200 0,17 179,200 196,200 6,0 54,-43 107,-95 107,-107 104,-106 166,-41 19,20 38,36 42,36 3,0 28,-20 53,-45 26,-25 50,-45 53,-45 8,0 203,192 203,201 0,9 -89,99 -98,99 -4,0 -50,-43 -102,-95 -52,-52 -101,-95 -108,-95 -15,0 -202,183 -202,197 0,5 22,30 48,56 l 49,48 46,-45 c 25,-26 52,-46 59,-46 8,0 34,20 58,45 39,40 42,46 29,62 -21,27 -81,83 -88,83 -4,0 -27,-20 -51,-45 -24,-25 -48,-45 -53,-45 -11,0 -517,506 -517,517 0,13 84,93 97,93 7,0 30,-18 52,-40 22,-22 46,-40 53,-40 8,0 34,20 58,45 l 44,45 -25,27 c -13,15 -34,37 -46,49 -13,11 -23,25 -23,31 0,5 20,29 45,53 25,24 45,47 45,51 0,3 -43,49 -95,102 -52,52 -95,102 -95,109 0,8 18,32 40,53 22,21 40,44 40,51 0,15 -79,94 -94,94 -16,0 -196,-182 -196,-198 0,-7 43,-56 95,-108 52,-53 95,-99 95,-102 0,-10 -193,-202 -203,-202 -12,0 -97,83 -97,95 0,6 20,31 45,55 25,24 45,47 45,51 0,7 -32,41 -73,79 l -28,24 -99,-99 c -55,-55 -100,-103 -100,-108 0,-4 20,-28 45,-54 25,-25 45,-48 45,-52 0,-4 -22,-29 -49,-55 l -50,-49 -100,100 c -56,55 -101,105 -101,110 0,5 20,29 45,53 25,24 45,48 45,52 0,4 -21,27 -46,52 -52,52 -56,51 -118,-13 l -39,-40 52,-52 52,-52 -52,-53 -53,-53 47,-47 c 26,-25 47,-51 47,-58 0,-14 -291,-306 -305,-306 -6,0 -53,43 -105,95 -52,52 -100,95 -106,95 -11,0 -94,-84 -94,-95 0,-3 21,-28 47,-56 l 47,-50 -50,-50 -50,-50 -51,45 c -28,25 -55,46 -60,46 -5,0 -27,-18 -48,-40 -21,-22 -45,-40 -51,-40 -7,0 -32,18 -56,40 -23,22 -48,40 -53,40 -6,0 -29,-18 -50,-40 -21,-22 -46,-40 -55,-40 -18,0 -90,74 -90,93 0,7 18,31 40,52 22,21 40,43 40,48 0,6 -18,29 -40,53 -22,24 -40,49 -40,57 0,7 18,31 40,52 22,21 40,44 40,50 0,5 -86,96 -191,200 -104,105 -195,198 -200,208 -8,14 0,27 37,67 l 47,50 -47,50 c -38,41 -45,53 -37,69 11,20 77,81 88,81 4,0 50,-43 104,-95 53,-52 100,-95 105,-95 5,0 54,45 109,100 l 100,100 -52,51 -51,52 -50,-47 c -41,-39 -54,-46 -69,-38 -29,16 -183,178 -183,193 0,7 114,128 254,268 199,199 253,258 246,270 -5,9 -47,54 -94,101 -47,46 -86,92 -86,100 0,9 18,34 40,55 22,21 40,42 40,46 0,4 -20,28 -45,54 l -46,47 -34,-27 c -19,-14 -35,-30 -35,-34 0,-4 -11,-13 -24,-21 -23,-12 -29,-8 -120,83 -53,52 -96,100 -96,106 0,14 185,201 198,201 6,0 30,-20 55,-45 26,-25 48,-45 50,-45 2,0 27,22 56,50 l 51,49 45,-45 c 25,-24 45,-51 45,-59 0,-8 -18,-32 -40,-52 -22,-21 -40,-44 -40,-52 0,-8 18,-31 39,-52 22,-20 41,-43 43,-51 2,-8 -12,-27 -30,-43 -64,-54 -64,-56 42,-164 53,-53 96,-103 96,-109 0,-7 -16,-27 -35,-44 -62,-54 -63,-63 -11,-114 25,-24 46,-48 46,-52 0,-5 -16,-24 -36,-43 -59,-57 -60,-62 -9,-114 25,-26 45,-51 45,-56 0,-5 -16,-24 -35,-41 -61,-53 -61,-61 -10,-114 25,-26 45,-51 45,-56 0,-5 -16,-23 -35,-40 -61,-53 -62,-62 -10,-114 26,-25 50,-44 55,-42 4,2 29,23 55,46 l 47,44 -24,26 c -13,14 -33,35 -45,45 -33,26 -29,47 17,92 22,21 40,44 40,51 0,6 -18,29 -40,50 -22,22 -40,46 -40,55 0,9 21,35 46,58 50,47 47,47 110,-16 18,-18 36,-33 41,-33 14,0 93,84 93,99 0,7 -18,29 -40,48 -22,20 -40,44 -40,53 0,9 18,34 40,55 22,21 40,44 40,50 0,14 -80,95 -92,95 -5,0 -31,-21 -58,-46 l -49,-46 -46,45 c -25,25 -45,50 -45,56 0,6 18,31 40,55 22,24 40,48 40,54 0,7 -40,52 -90,101 -50,50 -90,98 -90,108 0,11 39,58 90,107 50,49 90,94 90,102 0,7 -68,80 -150,163 l -150,149 -52,-49 c -28,-27 -53,-49 -56,-49 -2,0 -25,20 -50,45 -25,25 -49,45 -54,45 -5,0 -29,-21 -53,-46 l -45,-46 -28,21 c -15,11 -37,31 -47,45 -11,14 -26,26 -33,26 -7,0 -33,-21 -58,-46 -49,-51 -44,-52 -111,12 -18,17 -33,36 -33,43 0,6 18,29 40,51 22,22 40,47 40,55 0,9 -40,55 -90,103 -49,49 -90,96 -90,105 0,9 41,57 90,106 50,49 90,96 90,104 0,15 -285,307 -299,307 -4,0 -28,-20 -52,-45 -24,-25 -47,-45 -51,-45 -10,0 -98,88 -98,99 0,6 18,27 40,47 22,21 40,45 40,54 0,17 -72,100 -87,100 -14,0 -303,-294 -303,-309 0,-18 76,-91 94,-91 8,0 27,15 43,33 59,66 51,68 162,-43 56,-55 105,-100 109,-100 4,0 26,20 50,45 24,25 47,45 52,45 16,0 90,-79 90,-95 0,-9 -43,-59 -95,-112 -105,-107 -95,-105 -162,-36 -17,18 -36,33 -42,33 -15,0 -91,-82 -91,-99 0,-8 18,-31 40,-52 22,-21 40,-44 40,-52 0,-8 -18,-30 -40,-50 -22,-19 -40,-43 -40,-53 0,-18 74,-94 91,-94 6,0 25,15 42,33 65,66 55,68 161,-38 53,-53 96,-102 96,-110 0,-8 -18,-33 -40,-55 -22,-22 -40,-46 -40,-52 0,-7 15,-27 33,-43 64,-61 61,-61 111,-11 25,26 50,46 55,46 12,0 201,-189 201,-201 0,-5 -20,-29 -46,-54 l -45,-46 -28,20 c -15,11 -36,31 -46,45 -11,14 -26,26 -33,26 -16,0 -202,-186 -202,-203 0,-6 17,-28 39,-48 21,-21 41,-41 45,-47 6,-11 -288,-312 -305,-312 -5,0 -29,18 -54,41 -51,47 -50,57 7,111 21,20 38,40 38,45 0,4 -65,73 -145,153 -91,91 -145,152 -145,165 0,11 18,36 40,55 22,19 40,40 40,45 0,6 -43,53 -95,105 -52,52 -95,100 -95,107 0,6 18,30 40,52 22,22 40,47 40,56 0,16 -74,95 -90,95 -5,0 -29,-20 -52,-45 -23,-25 -46,-45 -50,-45 -14,0 -98,82 -98,95 0,7 45,58 101,113 l 101,100 -46,45 c -25,24 -46,52 -46,61 0,9 21,36 47,61 l 47,43 -47,44 c -26,25 -47,51 -47,60 0,8 43,57 95,109 52,51 95,96 95,100 0,13 -400,409 -413,409 -7,0 -31,-19 -54,-41 z M 4215,8416 c 25,-24 45,-50 45,-58 0,-14 -79,-98 -92,-98 -12,0 -98,87 -98,99 0,8 89,100 98,101 2,0 23,-20 47,-44 z m 420,-3 c 25,-26 45,-51 45,-54 0,-9 -87,-99 -95,-99 -11,0 -95,87 -95,98 0,12 80,100 92,101 4,1 28,-20 53,-46 z m -210,-207 c 25,-24 45,-50 45,-56 0,-11 -85,-100 -96,-100 -8,0 -94,93 -94,102 0,8 83,96 92,97 4,1 28,-19 53,-43 z m 1276,-8 c 21,-24 39,-48 39,-54 0,-5 -20,-29 -45,-52 -37,-34 -49,-40 -64,-33 -21,12 -81,78 -81,90 0,15 82,91 97,91 8,0 32,-19 54,-42 z M 4218,7997 c 23,-23 42,-48 42,-54 0,-7 -21,-33 -46,-59 l -45,-47 -50,49 c -27,26 -49,51 -49,55 0,11 84,98 95,98 6,1 30,-18 53,-42 z m 850,-8 c 23,-22 42,-46 42,-52 0,-20 -73,-87 -95,-87 -24,0 -99,72 -93,90 7,22 73,88 88,89 8,0 34,-18 58,-40 z M 4008,7787 c 23,-23 42,-48 42,-54 0,-7 -21,-33 -46,-59 l -45,-47 -45,44 c -24,24 -44,51 -44,61 0,19 68,96 85,97 6,1 30,-18 53,-42 z m 1371,-109 c 22,-24 41,-49 41,-57 0,-18 -71,-91 -90,-91 -20,0 -90,70 -90,91 0,17 75,99 90,99 5,0 27,-19 49,-42 z M 3840,7523 c 0,-7 -21,-33 -46,-59 l -46,-46 -44,43 c -24,24 -44,51 -44,61 0,9 19,37 43,62 l 42,44 48,-46 c 26,-25 47,-52 47,-59 z m -255,-149 c 25,-25 45,-52 45,-60 0,-7 -21,-34 -46,-59 l -45,-46 -45,45 c -24,25 -44,52 -44,60 0,12 72,98 87,105 1,1 23,-20 48,-45 z m -200,-218 c 85,-83 145,-151 145,-162 0,-19 -276,-304 -295,-304 -14,0 -305,292 -305,307 0,16 281,301 298,302 7,1 78,-64 157,-143 z m 1147,111 c 62,-58 63,-68 15,-115 -24,-23 -48,-42 -55,-42 -7,0 -34,20 -59,45 l -46,46 39,42 c 42,45 56,57 65,57 3,0 22,-15 41,-33 z m 2633,-113 c 80,-80 145,-151 145,-157 0,-14 -291,-307 -305,-307 -19,0 -295,285 -295,304 0,19 280,306 299,306 6,0 76,-66 156,-146 z M 3706,6835 c 24,-24 44,-48 44,-53 0,-12 -87,-92 -99,-92 -6,0 -31,21 -55,47 l -45,47 42,47 c 23,26 48,47 56,48 7,1 33,-19 57,-44 z m -1164,-92 c 26,-26 48,-51 48,-56 0,-5 -21,-31 -47,-58 l -47,-49 -48,47 c -26,26 -48,51 -48,57 0,9 80,103 90,105 2,1 26,-20 52,-46 z m 416,4 c 23,-23 42,-50 42,-59 0,-10 -20,-37 -43,-62 l -44,-45 -46,47 c -26,26 -47,53 -47,60 0,11 79,99 90,101 3,1 25,-18 48,-42 z m 3419,-77 102,-100 -46,-45 c -25,-25 -52,-45 -60,-45 -13,0 -203,182 -203,195 0,8 90,95 99,95 3,0 52,-45 108,-100 z m 547,-100 c 48,-49 86,-93 84,-97 -6,-14 -105,-103 -114,-103 -5,0 -54,45 -109,100 l -99,100 44,45 c 68,69 87,65 194,-45 z m -4172,-37 c 26,-26 48,-50 48,-54 0,-10 -88,-99 -98,-99 -12,0 -92,84 -92,97 0,11 79,100 90,102 2,1 26,-20 52,-46 z m -197,-220 c 19,-21 35,-41 35,-45 0,-8 -87,-98 -95,-98 -11,0 -95,88 -95,99 0,6 15,26 33,45 45,47 78,47 122,-1 z m -209,-207 c 19,-19 34,-39 34,-46 0,-11 -85,-100 -96,-100 -8,0 -94,93 -94,102 0,3 15,22 33,41 43,47 78,48 123,3 z m -209,-208 c 18,-18 33,-38 33,-45 0,-7 -21,-33 -46,-59 l -45,-47 -50,49 c -27,26 -49,51 -49,55 0,4 15,23 33,42 43,47 79,48 124,5 z m -420,-420 c 18,-18 33,-38 33,-45 0,-17 -87,-103 -104,-103 -8,0 -28,14 -45,31 -40,39 -41,79 -3,118 38,40 77,40 119,-1 z m 940,-100 c 45,-44 44,-80 -3,-124 -19,-19 -39,-34 -43,-34 -4,0 -28,22 -55,49 l -48,49 48,46 c 27,25 53,46 58,46 6,0 25,-14 43,-32 z m 6397,-114 c 80,-80 146,-151 146,-157 0,-14 -291,-307 -304,-307 -12,0 -284,269 -298,294 -9,16 10,39 138,167 82,82 154,149 160,149 7,0 77,-66 158,-146 z m -7127,4 c 18,-18 33,-37 33,-44 0,-16 -89,-104 -106,-104 -18,0 -73,58 -80,84 -4,17 4,33 28,59 43,48 80,49 125,5 z m 1046,-206 c 36,-38 35,-78 -3,-119 -16,-18 -35,-33 -42,-33 -7,0 -34,21 -60,47 l -47,46 42,43 c 50,50 74,54 110,16 z M 1700,4844 c 28,-26 50,-54 50,-62 0,-26 -61,-82 -89,-82 -15,0 -39,13 -58,32 -46,44 -45,85 2,127 20,17 38,31 41,31 3,0 27,-21 54,-46 z m -154,-265 c 55,-55 100,-104 102,-110 2,-5 -11,-25 -29,-44 -45,-48 -81,-47 -131,2 l -38,37 -38,-37 c -49,-48 -84,-49 -129,-5 -52,50 -46,70 54,170 48,49 93,88 99,88 6,0 56,-45 110,-101 z m 834,-423 c 0,-19 -74,-86 -94,-86 -21,0 -96,66 -96,84 0,6 21,32 47,58 l 47,48 48,-47 c 26,-26 48,-52 48,-57 z m 1485,-416 99,-99 -53,-52 -52,-53 -99,99 c -55,55 -100,104 -100,109 0,13 82,96 95,96 6,0 55,-45 110,-100 z m 3510,-154 c 25,-24 45,-48 45,-53 0,-13 -84,-93 -97,-93 -15,0 -93,78 -93,93 0,13 80,97 93,97 4,0 28,-20 52,-44 z m -3975,-220 144,-145 -157,-158 -157,-158 -150,150 c -82,82 -150,156 -150,163 0,7 66,80 148,162 110,111 151,146 162,140 8,-5 80,-74 160,-154 z m 3910,-148 c 0,-7 -68,-81 -150,-163 l -150,-150 -157,158 -158,158 157,156 158,156 150,-151 c 82,-83 150,-157 150,-164 z m -3185,262 c 21,-22 44,-40 50,-40 6,0 29,18 50,40 21,22 46,40 54,40 17,0 201,-179 201,-195 0,-13 -82,-95 -95,-95 -5,0 -55,45 -110,100 l -102,100 -52,-52 -52,-52 -52,52 -51,52 44,45 c 24,25 51,45 60,45 9,0 34,-18 55,-40 z m 1159,-739 148,-149 -42,-46 c -23,-25 -50,-46 -59,-46 -9,0 -84,68 -166,150 l -149,150 44,45 c 24,25 51,45 60,45 8,0 82,-67 164,-149 z m 314,-724 c 23,-23 42,-50 42,-58 0,-8 -20,-35 -45,-59 l -45,-44 -45,44 c -25,24 -45,51 -45,59 0,14 77,101 90,101 3,0 25,-19 48,-43 z m 462,-894 c 0,-18 -85,-103 -103,-103 -8,0 -35,20 -60,45 l -46,45 57,58 57,58 48,-45 c 26,-25 47,-51 47,-58 z"
       id="path3129"
       inkscape:connector-curvature="0" />
    <path
       d="m 3178,7049 c -21,-22 -38,-45 -38,-52 1,-16 78,-97 93,-97 18,0 87,77 87,97 0,20 -73,93 -92,92 -7,0 -30,-18 -50,-40 z"
       id="path3131"
       inkscape:connector-curvature="0" />
    <path
       d="m 6960,7053 c -22,-21 -40,-46 -40,-56 0,-20 69,-97 87,-97 15,0 92,81 93,97 0,15 -75,93 -90,93 -6,0 -28,-17 -50,-37 z"
       id="path3133"
       inkscape:connector-curvature="0" />
    <path
       d="m 8841,5156 c -46,-47 -46,-51 -2,-99 50,-53 59,-54 107,-6 24,24 44,48 44,55 0,15 -79,94 -94,94 -7,0 -31,-20 -55,-44 z"
       id="path3135"
       inkscape:connector-curvature="0" />
    <path
       d="m 3182,3276 c -23,-25 -42,-51 -42,-58 0,-8 20,-34 46,-58 l 45,-45 51,53 51,53 -49,50 c -26,27 -51,49 -54,49 -4,0 -25,-20 -48,-44 z"
       id="path3137"
       inkscape:connector-curvature="0" />
    <path
       d="m 6956,3271 -49,-50 51,-53 51,-53 45,45 c 26,24 46,50 46,58 0,13 -78,102 -90,102 -3,0 -28,-22 -54,-49 z"
       id="path3139"
       inkscape:connector-curvature="0" />
    <path
       d="m 5381,8826 c -36,-36 -41,-47 -33,-62 18,-32 69,-74 90,-74 20,0 92,71 92,90 0,15 -78,90 -93,90 -7,0 -32,-20 -56,-44 z"
       id="path3141"
       inkscape:connector-curvature="0" />
    <path
       d="m 3598,8729 c -21,-21 -38,-46 -38,-54 0,-19 70,-95 87,-95 19,0 93,75 93,94 0,18 -78,96 -95,95 -5,0 -27,-18 -47,-40 z"
       id="path3143"
       inkscape:connector-curvature="0" />
    <path
       d="m 4858,8729 c -21,-21 -38,-47 -38,-57 0,-20 69,-92 88,-92 18,0 92,72 92,90 0,17 -80,101 -95,99 -5,-1 -27,-19 -47,-40 z"
       id="path3145"
       inkscape:connector-curvature="0" />
    <path
       d="m 5171,8616 c -36,-37 -41,-47 -32,-63 12,-23 77,-83 90,-83 11,0 91,87 91,99 0,14 -79,91 -93,91 -7,0 -32,-20 -56,-44 z"
       id="path3147"
       inkscape:connector-curvature="0" />
    <path
       d="m 6017,8414 c -26,-25 -47,-50 -47,-55 0,-5 18,-27 40,-49 22,-22 40,-48 40,-58 0,-11 -18,-35 -40,-56 -22,-20 -40,-41 -40,-46 0,-5 15,-24 33,-42 67,-69 56,-72 167,40 55,55 100,103 100,106 0,6 -139,146 -187,189 -19,16 -21,16 -66,-29 z"
       id="path3149"
       inkscape:connector-curvature="0" />
    <path
       d="m 6332,7682 c -23,-22 -42,-48 -42,-58 0,-11 21,-39 46,-63 l 46,-43 -46,-43 c -25,-23 -46,-51 -46,-61 0,-11 35,-54 83,-100 120,-117 107,-113 165,-56 l 50,49 -99,101 c -54,56 -99,106 -99,112 0,5 18,28 40,50 22,22 40,46 40,54 0,15 -75,96 -88,96 -5,0 -27,-17 -50,-38 z"
       id="path3151"
       inkscape:connector-curvature="0" />
    <path
       d="m 8012,7267 c -23,-23 -42,-51 -42,-61 0,-10 18,-35 40,-57 22,-22 40,-43 40,-47 0,-5 -16,-24 -36,-43 -65,-62 -66,-60 40,-166 53,-52 96,-101 96,-107 0,-7 -18,-30 -40,-51 -22,-21 -40,-45 -40,-53 0,-14 393,-412 407,-412 12,0 93,83 93,97 0,7 -90,102 -200,211 -110,110 -200,202 -200,206 0,13 83,96 96,96 7,0 34,-21 59,-47 l 45,-47 49,48 c 30,30 47,54 44,63 -3,8 -49,57 -101,109 l -96,94 -53,-52 -52,-52 -46,45 c -25,24 -45,51 -45,59 0,9 18,34 40,55 22,21 40,45 40,52 0,13 -6,19 -66,75 l -30,28 -42,-43 z"
       id="path3153"
       inkscape:connector-curvature="0" />
    <path
       d="m 7791,6415 c -22,-24 -41,-48 -41,-52 0,-5 21,-27 45,-51 25,-24 45,-47 45,-51 0,-4 -16,-23 -36,-42 -60,-57 -60,-62 -9,-115 25,-26 45,-50 45,-54 0,-12 -86,-90 -100,-90 -8,0 -58,44 -112,97 l -97,97 -91,-90 c -51,-49 -96,-97 -101,-107 -8,-13 0,-27 37,-67 l 47,-50 -47,-50 c -38,-41 -45,-53 -37,-69 11,-19 77,-81 88,-81 3,0 28,21 55,46 l 50,47 97,-97 c 53,-53 103,-96 112,-96 8,0 35,20 59,45 l 43,44 -46,50 c -26,28 -47,53 -47,57 0,4 45,53 100,109 l 100,101 -51,51 -51,51 38,41 c 59,67 65,67 118,15 25,-25 46,-48 46,-51 0,-3 -20,-28 -45,-54 -25,-26 -45,-52 -45,-57 0,-5 20,-28 45,-51 25,-23 45,-45 45,-50 0,-4 -16,-23 -36,-42 -65,-62 -66,-60 37,-165 51,-52 100,-94 109,-94 9,0 36,20 60,45 l 44,45 -25,26 c -13,15 -34,37 -47,50 -27,28 -22,41 32,93 20,19 36,38 36,42 0,3 -20,28 -45,53 -35,37 -43,51 -36,64 5,9 48,55 95,102 47,46 86,90 86,97 0,15 -78,93 -93,93 -6,0 -32,-21 -58,-46 l -47,-47 -46,46 c -25,24 -46,51 -46,59 0,8 18,32 40,53 22,21 40,44 40,50 0,15 -78,95 -93,95 -6,0 -32,-21 -58,-46 l -47,-47 -47,47 c -26,25 -53,46 -60,46 -7,0 -31,-20 -54,-45 z"
       id="path3155"
       inkscape:connector-curvature="0" />
    <path
       d="m 5747,6260 c -48,-50 -95,-90 -105,-90 -9,0 -33,18 -52,40 -19,22 -40,40 -47,40 -11,0 -65,-48 -91,-82 -12,-15 -8,-23 32,-64 25,-25 46,-50 46,-55 0,-4 -45,-54 -101,-109 l -101,-101 51,-48 c 28,-27 51,-51 51,-53 0,-13 -194,-198 -206,-198 -8,0 -32,18 -53,40 -21,22 -43,40 -50,40 -7,0 -172,-160 -368,-355 -195,-195 -360,-355 -367,-355 -6,0 -30,18 -51,40 -21,22 -45,40 -53,40 -14,0 -202,-184 -202,-198 0,-4 20,-28 45,-52 25,-24 45,-48 45,-52 0,-4 -46,-52 -102,-108 l -102,-101 49,-49 c 28,-28 53,-46 62,-43 7,3 148,140 312,304 164,165 305,299 312,299 8,0 35,-20 59,-45 34,-35 41,-47 32,-58 -7,-8 -148,-150 -314,-316 l -302,-301 44,-45 c 24,-25 52,-45 61,-45 9,0 56,41 105,90 48,49 95,90 104,90 9,0 34,-18 55,-40 21,-22 44,-40 49,-40 6,0 79,69 163,152 l 153,153 -52,52 -52,53 44,45 c 24,25 51,45 60,45 8,0 56,-40 105,-90 49,-49 96,-90 105,-90 8,0 130,114 269,254 l 254,255 -52,51 -53,52 43,44 c 24,24 52,44 62,44 10,0 36,-18 58,-40 22,-22 43,-40 47,-40 10,0 412,403 412,413 0,4 -20,28 -46,52 -36,36 -43,48 -35,62 5,10 50,58 100,107 l 92,89 -28,30 c -132,140 -378,377 -391,377 -9,-1 -56,-41 -105,-90 z m 218,-215 c 52,-53 95,-97 95,-98 0,-2 -92,-95 -205,-207 -113,-113 -205,-209 -205,-213 0,-4 21,-28 46,-52 25,-25 44,-49 42,-54 -8,-21 -79,-91 -92,-91 -14,0 -206,184 -206,197 0,3 92,98 205,211 113,112 205,206 205,209 0,2 -23,26 -50,51 l -51,47 42,48 c 23,26 50,47 60,47 10,0 61,-43 114,-95 z m -682,-786 150,-151 -149,-149 c -82,-82 -156,-149 -164,-149 -8,0 -82,67 -164,149 l -149,149 149,151 c 82,82 155,150 163,151 7,0 81,-68 164,-151 z"
       id="path3157"
       inkscape:connector-curvature="0" />
    <path
       d="m 5062,5157 c -23,-23 -42,-47 -41,-52 1,-6 23,-30 50,-54 l 49,-44 49,44 c 27,24 49,48 50,54 2,15 -82,95 -99,95 -9,0 -35,-19 -58,-43 z"
       id="path3159"
       inkscape:connector-curvature="0" />
    <path
       d="m 8582,6157 c -50,-51 -92,-98 -92,-105 0,-17 75,-92 92,-92 17,0 198,181 198,197 0,16 -78,93 -93,93 -7,0 -54,-42 -105,-93 z"
       id="path3161"
       inkscape:connector-curvature="0" />
    <path
       d="m 1021,5933 c -13,-5 -24,-15 -70,-66 l -25,-27 44,-45 c 24,-25 51,-45 58,-45 19,0 92,73 92,92 0,20 -83,96 -99,91 z"
       id="path3163"
       inkscape:connector-curvature="0" />
    <path
       d="m 1314,5812 c -71,-71 -140,-141 -153,-155 l -25,-27 44,-45 c 24,-25 50,-45 58,-45 18,0 302,284 302,302 0,12 -79,98 -91,98 -3,0 -64,-58 -135,-128 z"
       id="path3165"
       inkscape:connector-curvature="0" />
    <path
       d="M 351,5479 C 105,5233 0,5121 0,5106 c 0,-15 103,-124 345,-366 189,-189 351,-348 360,-353 13,-7 90,66 376,351 197,198 359,363 359,368 0,14 -713,724 -727,724 -6,0 -169,-158 -362,-351 z m 628,-113 c 233,-233 253,-256 240,-273 -26,-34 -498,-503 -505,-503 -13,0 -514,503 -514,516 0,16 498,514 513,514 7,0 127,-114 266,-254 z"
       id="path3167"
       inkscape:connector-curvature="0" />
    <path
       d="m 556,5264 c -80,-80 -146,-151 -146,-158 0,-12 291,-306 304,-306 10,0 306,297 306,307 0,13 -294,303 -307,303 -6,0 -77,-66 -157,-146 z"
       id="path3169"
       inkscape:connector-curvature="0" />
    <path
       d="m 9472,5787 c -23,-23 -42,-46 -42,-50 0,-11 83,-97 94,-97 15,0 96,82 96,96 0,16 -77,94 -93,94 -7,0 -32,-19 -55,-43 z"
       id="path3171"
       inkscape:connector-curvature="0" />
    <path
       d="m 9682,5577 c -23,-23 -42,-46 -42,-50 0,-5 90,-98 200,-209 110,-110 200,-205 200,-211 0,-6 -21,-33 -47,-59 l -47,-48 47,-46 c 26,-25 54,-44 62,-42 8,2 52,41 99,87 58,56 86,91 86,106 0,17 -68,91 -246,269 -135,135 -251,246 -258,246 -6,0 -31,-19 -54,-43 z"
       id="path3173"
       inkscape:connector-curvature="0" />
    <path
       d="m 7486,5480 c -25,-23 -46,-49 -46,-56 0,-21 70,-94 89,-94 9,0 37,20 61,45 l 44,45 -51,51 -51,51 -46,-42 z"
       id="path3175"
       inkscape:connector-curvature="0" />
    <path
       d="m 9472,5367 c -23,-23 -42,-46 -42,-50 0,-11 86,-97 96,-97 13,0 94,83 94,96 0,16 -77,94 -93,94 -7,0 -32,-19 -55,-43 z"
       id="path3177"
       inkscape:connector-curvature="0" />
    <path
       d="m 7796,4951 c -40,-40 -46,-52 -38,-67 17,-31 178,-184 194,-184 8,0 34,20 58,45 l 44,45 -100,102 c -54,57 -101,104 -104,106 -3,1 -27,-20 -54,-47 z"
       id="path3179"
       inkscape:connector-curvature="0" />
    <path
       d="m 5959,4793 c -55,-53 -99,-100 -99,-104 0,-4 46,-52 102,-108 l 102,-102 -104,-104 -104,-104 40,-45 c 21,-24 48,-45 59,-45 14,-1 86,64 218,197 108,108 197,201 197,206 0,9 -297,306 -307,306 -3,0 -50,-44 -104,-97 z"
       id="path3181"
       inkscape:connector-curvature="0" />
    <path
       d="m 6645,4639 c -25,-23 -45,-47 -45,-55 0,-13 185,-204 199,-204 3,0 28,22 55,49 l 48,48 -100,102 c -55,55 -103,101 -106,101 -4,0 -27,-19 -51,-41 z"
       id="path3183"
       inkscape:connector-curvature="0" />
    <path
       d="m 1916,4524 -49,-45 49,-50 c 26,-27 51,-49 55,-49 11,0 80,63 91,84 8,15 2,26 -33,62 -24,24 -48,44 -54,44 -5,-1 -32,-21 -59,-46 z"
       id="path3185"
       inkscape:connector-curvature="0" />
    <path
       d="m 6752,4326 c -27,-25 -54,-46 -60,-46 -6,0 -29,18 -51,40 -22,22 -45,40 -53,40 -7,0 -80,-67 -163,-150 l -149,-149 24,-28 c 14,-15 35,-36 48,-46 12,-10 22,-24 22,-31 0,-14 -81,-96 -96,-96 -5,0 -28,18 -49,40 -21,22 -46,40 -55,40 -8,0 -83,-67 -165,-150 l -150,-150 100,-100 c 55,-55 104,-100 109,-100 6,0 32,21 58,47 l 48,47 48,-47 c 26,-26 52,-47 57,-47 6,0 149,139 319,309 l 310,310 -47,46 c -26,25 -47,51 -47,58 0,6 21,33 46,58 l 47,48 -51,51 -51,51 -49,-45 z m -522,-641 44,-45 -44,-45 c -24,-25 -51,-45 -60,-45 -9,0 -36,20 -60,45 l -44,45 44,45 c 24,25 51,45 60,45 9,0 36,-20 60,-45 z"
       id="path3187"
       inkscape:connector-curvature="0" />
    <path
       d="m 8582,4267 c -50,-51 -92,-98 -92,-104 0,-14 2,-16 109,-125 l 84,-86 -47,-50 c -25,-27 -46,-52 -46,-55 0,-3 20,-27 44,-53 50,-53 50,-58 -8,-113 -20,-19 -36,-38 -36,-42 0,-8 54,-66 83,-88 17,-13 31,-2 168,135 82,82 149,153 149,159 0,6 -65,75 -145,155 -80,80 -145,152 -145,160 0,9 18,34 40,55 22,21 40,45 40,52 0,14 -80,92 -95,93 -6,0 -52,-42 -103,-93 z"
       id="path3189"
       inkscape:connector-curvature="0" />
    <path
       d="m 8841,4316 c -35,-36 -41,-47 -33,-62 17,-31 178,-184 195,-184 8,0 34,21 57,46 l 42,46 -98,99 c -54,54 -103,99 -109,99 -6,0 -30,-20 -54,-44 z"
       id="path3191"
       inkscape:connector-curvature="0" />
    <path
       d="m 1835,4231 c -73,-68 -73,-64 -20,-120 49,-53 51,-71 7,-103 -9,-7 -26,-23 -36,-36 l -19,-22 97,-98 c 53,-54 96,-104 96,-110 0,-7 -18,-31 -40,-53 -22,-23 -40,-47 -40,-53 0,-6 67,-78 149,-160 137,-137 151,-148 168,-135 32,25 70,66 76,81 3,10 -45,66 -144,164 -82,82 -149,153 -149,157 0,5 20,28 45,53 25,24 45,47 45,51 0,4 -45,53 -101,109 l -101,103 46,45 c 25,25 46,51 46,58 0,12 -79,98 -90,98 -3,0 -18,-13 -35,-29 z"
       id="path3193"
       inkscape:connector-curvature="0" />
    <path
       d="m 5690,4105 -44,-45 44,-45 c 24,-25 51,-45 60,-45 9,0 36,20 60,45 l 44,45 -44,45 c -24,25 -51,45 -60,45 -9,0 -36,-20 -60,-45 z"
       id="path3195"
       inkscape:connector-curvature="0" />
    <path
       d="m 1186,4001 -48,-49 42,-46 c 23,-25 49,-46 56,-46 20,0 94,70 94,88 0,15 -77,102 -90,102 -3,0 -27,-22 -54,-49 z"
       id="path3197"
       inkscape:connector-curvature="0" />
    <path
       d="m 2548,3899 c -21,-21 -38,-45 -38,-52 0,-13 80,-97 93,-97 9,0 97,89 97,98 0,14 -85,92 -100,91 -8,0 -32,-18 -52,-40 z"
       id="path3199"
       inkscape:connector-curvature="0" />
    <path
       d="m 1415,3811 c -16,-15 -39,-37 -49,-49 l -19,-22 98,-100 c 54,-55 102,-100 105,-100 4,0 29,20 56,45 27,25 51,45 54,45 3,0 26,-20 50,-45 24,-25 47,-45 51,-45 10,0 99,88 99,97 0,5 -45,53 -100,108 l -100,99 -31,-29 c -18,-17 -41,-38 -51,-48 -22,-21 -38,-14 -87,37 -19,20 -37,36 -40,36 -4,0 -19,-13 -36,-29 z"
       id="path3201"
       inkscape:connector-curvature="0" />
    <path
       d="m 5691,3476 -43,-44 42,-46 c 23,-25 50,-46 59,-46 9,0 37,20 61,45 l 44,45 -44,45 c -24,25 -51,45 -60,45 -9,0 -35,-20 -59,-44 z"
       id="path3203"
       inkscape:connector-curvature="0" />
    <path
       d="m 1923,3275 c -24,-24 -43,-49 -43,-57 0,-8 20,-34 45,-58 39,-39 46,-42 62,-29 28,22 83,80 83,88 0,8 -93,101 -100,100 -3,-1 -24,-20 -47,-44 z"
       id="path3205"
       inkscape:connector-curvature="0" />
    <path
       d="m 2287,3220 c -109,-110 -108,-107 -44,-169 41,-39 40,-50 -16,-102 -44,-43 -43,-50 21,-112 l 39,-38 46,47 c 26,26 47,52 47,59 0,6 -18,29 -40,50 -22,21 -40,45 -40,52 0,8 40,53 88,102 49,48 91,95 95,103 3,10 -12,32 -42,62 -26,25 -49,46 -51,45 -3,0 -49,-45 -103,-99 z"
       id="path3207"
       inkscape:connector-curvature="0" />
    <path
       d="m 4546,2754 c -21,-24 -46,-44 -55,-44 -9,0 -35,18 -56,40 -21,22 -44,40 -49,40 -14,0 -96,-81 -96,-95 0,-16 184,-195 201,-195 8,0 33,18 54,40 21,22 44,40 50,40 6,0 29,-18 50,-40 21,-22 46,-40 55,-40 20,0 90,71 90,91 0,13 -189,210 -200,208 -3,0 -22,-21 -44,-45 z"
       id="path3209"
       inkscape:connector-curvature="0" />
    <path
       d="m 2443,2746 c -24,-24 -43,-47 -43,-52 0,-6 22,-31 48,-57 l 48,-47 47,47 c 26,25 47,51 47,57 0,14 -81,96 -95,96 -5,-1 -29,-20 -52,-44 z"
       id="path3211"
       inkscape:connector-curvature="0" />
    <path
       d="m 2862,2747 c -23,-23 -42,-47 -42,-53 0,-5 18,-28 40,-49 22,-21 40,-46 40,-55 0,-9 -18,-34 -40,-55 -22,-21 -40,-44 -40,-50 0,-6 22,-32 48,-58 l 48,-47 42,43 c 23,23 42,50 42,60 0,9 -18,35 -40,57 -22,22 -40,44 -40,48 0,4 16,24 36,43 61,58 62,65 13,115 -24,24 -48,44 -54,44 -6,0 -30,-19 -53,-43 z"
       id="path3213"
       inkscape:connector-curvature="0" />
    <path
       d="m 2652,2537 c -23,-23 -42,-47 -42,-53 0,-5 22,-31 48,-57 l 48,-47 47,48 c 26,26 47,52 47,57 0,13 -82,95 -95,95 -6,0 -30,-19 -53,-43 z"
       id="path3215"
       inkscape:connector-curvature="0" />
    <path
       d="m 3967,2382 c -53,-53 -97,-102 -97,-108 0,-5 18,-28 40,-49 22,-21 40,-46 40,-55 0,-9 -18,-34 -40,-55 -22,-21 -40,-44 -40,-50 0,-6 18,-29 40,-50 22,-21 40,-46 40,-55 0,-17 -179,-200 -195,-200 -17,0 -195,184 -195,201 0,8 14,28 31,45 55,53 56,61 8,110 -24,24 -48,44 -54,44 -6,0 -55,-45 -110,-100 l -100,-100 98,-98 c 53,-53 97,-104 97,-113 0,-8 -18,-33 -40,-54 -22,-21 -40,-44 -40,-49 0,-13 81,-96 94,-96 6,0 31,21 57,46 l 47,46 46,-42 c 25,-23 46,-50 46,-59 0,-9 -18,-35 -40,-56 -22,-21 -40,-44 -40,-50 0,-14 82,-95 96,-95 5,0 29,20 53,44 49,50 48,60 -14,114 -19,17 -35,35 -35,39 0,5 68,76 150,158 83,82 150,154 150,160 0,5 -21,31 -47,57 l -47,48 97,98 c 53,53 97,104 97,113 0,8 -18,33 -40,54 -22,21 -40,44 -40,50 0,6 18,29 40,50 22,21 40,47 40,56 0,13 -80,99 -92,99 -2,0 -47,-44 -101,-98 z"
       id="path3217"
       inkscape:connector-curvature="0" />
    <path
       d="m 3282,2327 c -23,-23 -42,-47 -42,-52 0,-13 82,-95 94,-95 13,0 96,81 96,94 0,14 -81,96 -95,96 -6,0 -30,-19 -53,-43 z"
       id="path3219"
       inkscape:connector-curvature="0" />
    <path
       d="m 4542,2327 c -23,-23 -42,-47 -42,-53 0,-5 18,-28 40,-49 22,-21 40,-46 40,-55 0,-8 -65,-80 -145,-160 -80,-80 -145,-149 -145,-155 0,-13 82,-95 96,-95 5,0 52,43 104,95 52,52 99,95 104,95 14,0 96,-82 96,-95 0,-6 -43,-53 -95,-105 -52,-52 -95,-99 -95,-104 0,-14 82,-96 95,-96 6,0 55,45 109,99 l 99,99 -51,54 -51,54 44,44 c 25,24 45,51 45,59 0,9 -44,60 -97,113 l -97,98 47,48 c 26,26 47,52 47,57 0,13 -82,95 -95,95 -6,0 -30,-19 -53,-43 z"
       id="path3221"
       inkscape:connector-curvature="0" />
    <path
       d="m 4747,2323 -49,-46 153,-153 c 85,-85 159,-154 164,-154 13,0 95,82 95,96 0,12 -292,304 -305,304 -6,0 -32,-21 -58,-47 z"
       id="path3223"
       inkscape:connector-curvature="0" />
    <path
       d="m 4225,2220 -50,-50 52,-51 51,-51 46,42 c 25,23 46,50 46,60 0,14 -80,100 -93,100 -1,0 -25,-23 -52,-50 z"
       id="path3225"
       inkscape:connector-curvature="0" />
    <path
       d="m 3702,2117 c -23,-23 -42,-47 -42,-52 0,-14 82,-95 96,-95 12,0 94,84 94,97 0,12 -83,93 -95,93 -6,0 -30,-19 -53,-43 z"
       id="path3227"
       inkscape:connector-curvature="0" />
    <path
       d="m 3182,2017 c -23,-23 -42,-50 -42,-58 0,-8 20,-35 45,-59 l 45,-44 45,44 c 25,24 45,51 45,59 0,14 -77,101 -90,101 -3,0 -25,-19 -48,-43 z"
       id="path3229"
       inkscape:connector-curvature="0" />
    <path
       d="m 4122,1697 c -23,-23 -42,-47 -42,-52 0,-13 82,-95 95,-95 6,0 30,20 54,44 36,37 41,47 32,63 -11,22 -77,83 -89,83 -4,0 -27,-19 -50,-43 z"
       id="path3231"
       inkscape:connector-curvature="0" />
    <path
       d="m 4378,1323 -98,-96 -50,47 c -27,25 -53,46 -57,46 -5,0 -30,-22 -56,-48 l -48,-49 91,-89 c 51,-49 96,-97 102,-107 8,-15 1,-28 -38,-69 l -46,-50 48,-49 c 26,-27 50,-49 53,-49 13,0 301,296 301,310 0,9 -18,34 -40,55 -22,21 -40,44 -40,50 0,6 18,29 40,50 22,21 40,46 40,55 0,20 -71,90 -90,90 -8,0 -59,-44 -112,-97 z"
       id="path3233"
       inkscape:connector-curvature="0" />
    <path
       d="M 4745,1060 4385,700 4730,351 5075,3 l 45,0 45,0 345,348 345,349 -360,360 c -198,198 -367,360 -375,360 -8,0 -177,-162 -375,-360 z M 5390,955 5644,700 5390,445 C 5250,305 5128,190 5120,190 c -8,0 -130,115 -270,255 l -254,255 254,255 c 140,140 261,255 270,255 9,0 130,-115 270,-255 z"
       id="path3235"
       inkscape:connector-curvature="0" />
    <path
       d="M 4955,850 4806,699 4955,550 c 83,-83 157,-150 165,-150 8,0 82,67 165,150 l 149,149 -149,151 c -82,82 -156,150 -165,150 -9,0 -83,-68 -165,-150 z"
       id="path3237"
       inkscape:connector-curvature="0" />
    <path
       d="m 3912,1277 c -23,-23 -42,-47 -42,-52 0,-13 82,-95 95,-95 6,0 30,20 54,44 36,37 41,47 32,63 -11,22 -77,83 -89,83 -4,0 -27,-19 -50,-43 z"
       id="path3239"
       inkscape:connector-curvature="0" />
  </g>
</svg>
